<svg id="visual" viewBox="0 0 1920 300" width="1920" height="300" xmlns="http://www.w3.org/2000/svg" xmlns:xlink="http://www.w3.org/1999/xlink" version="1.1"><path d="M0 256L160 225.7C320 195.3 640 134.7 960 98.8C1280 63 1600 52 1760 46.5L1920 41L1920 301L1760 301C1600 301 1280 301 960 301C640 301 320 301 160 301L0 301Z" fill="#ac34e3"></path><path d="M0 202L160 194.2C320 186.3 640 170.7 960 170.8C1280 171 1600 187 1760 195L1920 203L1920 301L1760 301C1600 301 1280 301 960 301C640 301 320 301 160 301L0 301Z" fill="#2ea3f2"></path></svg>