<svg id="visual" viewBox="0 0 1920 900" width="1920" height="900" xmlns="http://www.w3.org/2000/svg" xmlns:xlink="http://www.w3.org/1999/xlink" version="1.1"><path d="M0 700L160 725.5C320 751 640 802 960 815.2C1280 828.3 1600 803.7 1760 791.3L1920 779L1920 901L1760 901C1600 901 1280 901 960 901C640 901 320 901 160 901L0 901Z" fill="#ac34e3"></path><path d="M0 828L160 832.5C320 837 640 846 960 834C1280 822 1600 789 1760 772.5L1920 756L1920 901L1760 901C1600 901 1280 901 960 901C640 901 320 901 160 901L0 901Z" fill="#2ea3f2"></path></svg>