<svg id="visual" viewBox="0 0 1920 900" width="1920" height="900" xmlns="http://www.w3.org/2000/svg" xmlns:xlink="http://www.w3.org/1999/xlink" version="1.1"><path d="M0 94L160 104.5C320 115 640 136 960 142.8C1280 149.7 1600 142.3 1760 138.7L1920 135L1920 0L1760 0C1600 0 1280 0 960 0C640 0 320 0 160 0L0 0Z" fill="#ac34e3"></path><path d="M0 28L160 47.7C320 67.3 640 106.7 960 120.7C1280 134.7 1600 123.3 1760 117.7L1920 112L1920 0L1760 0C1600 0 1280 0 960 0C640 0 320 0 160 0L0 0Z" fill="#2ea3f2"></path></svg>