<svg id="visual" viewBox="0 0 1920 200" width="1920" height="200" xmlns="http://www.w3.org/2000/svg" xmlns:xlink="http://www.w3.org/1999/xlink" version="1.1"><path d="M0 121L160 126.2C320 131.3 640 141.7 960 127.3C1280 113 1600 74 1760 54.5L1920 35L1920 201L1760 201C1600 201 1280 201 960 201C640 201 320 201 160 201L0 201Z" fill="#2ea3f2"></path><path d="M0 126L160 121C320 116 640 106 960 112.2C1280 118.3 1600 140.7 1760 151.8L1920 163L1920 201L1760 201C1600 201 1280 201 960 201C640 201 320 201 160 201L0 201Z" fill="#ac34e3"></path></svg>